<svg width="2342" height="600" viewBox="0 0 2342 600" fill="none" xmlns="http://www.w3.org/2000/svg" xmlns:xlink="http://www.w3.org/1999/xlink">
<path d="M0,0L2341.46,0L2341.46,293.42L0,586.102L0,0Z" fill="#F9F5FF"/>
<path d="M1604,384.929L2059.284,328L2059.284,397.377L1604,454.306L1604,384.929Z" fill="#F4EBFF"/>
<path d="M1301.073,354.084L1964.487,270.823L1964.487,340.2L1301.073,423.461L1301.073,354.084Z" fill="#E9D7FE"/>
<path d="M1474.515,262.929L1929.799,206L1929.799,275.377L1474.515,332.306L1474.515,262.929Z" fill="#D6BBFB"/>
<path d="M611.513,439.964L1066.797,383.035L1066.797,452.412L611.513,509.341L611.513,439.964Z" fill="#F4EBFF"/>
<path d="M446.743,529.923L902.027,472.994L902.027,542.371L446.743,599.3L446.743,529.923Z" fill="#D6BBFB"/>
</svg>
