<svg width="4800" height="924" viewBox="0 0 4800 924" fill="none" xmlns="http://www.w3.org/2000/svg" xmlns:xlink="http://www.w3.org/1999/xlink">
<path d="M0,0L4800,0L4800,239.112L0,839.11L0,0Z" fill="#F9F5FF"/>
<path d="M3600,388.011L4533.334,271.307L4533.334,413.529L3600,530.233L3600,388.011Z" fill="#F4EBFF"/>
<path d="M2640,367.574L4000,196.889L4000,339.111L2640,509.797L2640,367.574Z" fill="#E9D7FE"/>
<path d="M2995.555,180.704L3928.889,64L3928.889,206.222L2995.555,322.926L2995.555,180.704Z" fill="#D6BBFB"/>
<path d="M800,596.925L1733.334,480.221L1733.334,622.443L800,739.147L800,596.925Z" fill="#F4EBFF"/>
<path d="M462.223,781.344L1395.557,664.64L1395.557,806.862L462.223,923.566L462.223,781.344Z" fill="#D6BBFB"/>
</svg>
