<svg width="44" height="44" viewBox="0 0 44 44" fill="none" xmlns="http://www.w3.org/2000/svg" xmlns:xlink="http://www.w3.org/1999/xlink">
<path d="M15.6,24.8C14.937,23.916 13.684,23.737 12.8,24.4C11.916,25.063 11.737,26.316 12.4,27.2L15.6,24.8ZM31.6,27.2C32.263,26.316 32.084,25.063 31.2,24.4C30.316,23.737 29.063,23.916 28.4,24.8L31.6,27.2ZM16,14C14.895,14 14,14.895 14,16C14,17.105 14.895,18 16,18L16,14ZM16.02,18C17.125,18 18.02,17.105 18.02,16C18.02,14.895 17.125,14 16.02,14L16.02,18ZM28,14C26.895,14 26,14.895 26,16C26,17.105 26.895,18 28,18L28,14ZM28.02,18C29.125,18 30.02,17.105 30.02,16C30.02,14.895 29.125,14 28.02,14L28.02,18ZM40,22C40,31.941 31.941,40 22,40L22,44C34.15,44 44,34.15 44,22L40,22ZM22,40C12.059,40 4,31.941 4,22L0,22C0,34.15 9.85,44 22,44L22,40ZM4,22C4,12.059 12.059,4 22,4L22,0C9.85,0 0,9.85 0,22L4,22ZM22,4C31.941,4 40,12.059 40,22L44,22C44,9.85 34.15,0 22,0L22,4ZM14,26C12.4,27.2 12.4,27.201 12.401,27.201C12.401,27.202 12.402,27.202 12.402,27.203C12.403,27.204 12.404,27.205 12.404,27.206C12.406,27.208 12.408,27.21 12.41,27.213C12.414,27.218 12.419,27.225 12.424,27.232C12.435,27.246 12.45,27.265 12.467,27.286C12.501,27.33 12.548,27.388 12.607,27.458C12.724,27.597 12.89,27.787 13.103,28.009C13.527,28.451 14.147,29.034 14.949,29.617C16.545,30.778 18.949,32 22,32L22,28C20.051,28 18.455,27.222 17.301,26.383C16.728,25.966 16.285,25.549 15.991,25.241C15.844,25.088 15.737,24.965 15.671,24.886C15.638,24.847 15.615,24.819 15.603,24.804C15.597,24.796 15.594,24.792 15.593,24.791C15.593,24.791 15.593,24.791 15.595,24.793C15.595,24.794 15.596,24.795 15.597,24.796C15.597,24.796 15.598,24.797 15.598,24.798C15.599,24.798 15.599,24.799 15.599,24.799C15.6,24.799 15.6,24.8 14,26ZM22,32C25.051,32 27.455,30.778 29.051,29.617C29.853,29.034 30.473,28.451 30.897,28.009C31.11,27.787 31.276,27.597 31.393,27.458C31.452,27.388 31.499,27.33 31.533,27.286C31.55,27.265 31.565,27.246 31.576,27.232C31.581,27.225 31.586,27.218 31.59,27.213C31.592,27.21 31.594,27.208 31.596,27.206C31.596,27.205 31.597,27.204 31.598,27.203C31.598,27.202 31.599,27.202 31.599,27.201C31.6,27.201 31.6,27.2 30,26C28.4,24.8 28.4,24.799 28.401,24.799C28.401,24.799 28.401,24.798 28.402,24.798C28.402,24.797 28.403,24.796 28.403,24.796C28.404,24.795 28.405,24.794 28.405,24.793C28.407,24.791 28.407,24.791 28.407,24.791C28.406,24.792 28.403,24.796 28.397,24.804C28.385,24.819 28.362,24.847 28.329,24.886C28.263,24.965 28.156,25.088 28.009,25.241C27.715,25.549 27.272,25.966 26.699,26.383C25.545,27.222 23.949,28 22,28L22,32ZM16,18L16.02,18L16.02,14L16,14L16,18ZM28,18L28.02,18L28.02,14L28,14L28,18Z" fill="#7F56D9"/>
</svg>
