<svg width="48" height="40" viewBox="0 0 48 40" fill="none" xmlns="http://www.w3.org/2000/svg" xmlns:xlink="http://www.w3.org/1999/xlink">
<path d="M32,38C32,39.105 32.895,40 34,40C35.105,40 36,39.105 36,38L32,38ZM26,26L26,24L26,26ZM10,26L10,24L10,26ZM2,34L0,34L2,34ZM0,38C0,39.105 0.895,40 2,40C3.105,40 4,39.105 4,38L0,38ZM44,38C44,39.105 44.895,40 46,40C47.105,40 48,39.105 48,38L44,38ZM46,34L48,34L48,33.999L46,34ZM40.5,24.324C39.431,24.047 38.34,24.691 38.064,25.76C37.787,26.829 38.431,27.92 39.5,28.196L40.5,24.324ZM32.496,0.323C31.426,0.049 30.336,0.694 30.062,1.764C29.789,2.834 30.434,3.924 31.504,4.198L32.496,0.323ZM38.016,10.01L40.016,10.01L38.016,10.01ZM31.504,15.823C30.434,16.096 29.789,17.186 30.062,18.256C30.336,19.326 31.426,19.971 32.496,19.698L31.504,15.823ZM36,38L36,34L32,34L32,38L36,38ZM36,34C36,31.348 34.946,28.804 33.071,26.929L30.243,29.757C31.368,30.883 32,32.409 32,34L36,34ZM33.071,26.929C31.196,25.054 28.652,24 26,24L26,28C27.591,28 29.117,28.632 30.243,29.757L33.071,26.929ZM26,24L10,24L10,28L26,28L26,24ZM10,24C7.348,24 4.804,25.054 2.929,26.929L5.757,29.757C6.883,28.632 8.409,28 10,28L10,24ZM2.929,26.929C1.054,28.804 0,31.348 0,34L4,34C4,32.409 4.632,30.883 5.757,29.757L2.929,26.929ZM0,34L0,38L4,38L4,34L0,34ZM24,10C24,13.314 21.314,16 18,16L18,20C23.523,20 28,15.523 28,10L24,10ZM18,16C14.686,16 12,13.314 12,10L8,10C8,15.523 12.477,20 18,20L18,16ZM12,10C12,6.686 14.686,4 18,4L18,0C12.477,0 8,4.477 8,10L12,10ZM18,4C21.314,4 24,6.686 24,10L28,10C28,4.477 23.523,0 18,0L18,4ZM48,38L48,34L44,34L44,38L48,38ZM48,33.999C47.998,31.783 47.261,29.63 45.903,27.879L42.742,30.33C43.557,31.381 43.999,32.672 44,34.001L48,33.999ZM45.903,27.879C44.546,26.128 42.645,24.877 40.5,24.324L39.5,28.196C40.787,28.529 41.928,29.279 42.742,30.33L45.903,27.879ZM31.504,4.198C32.795,4.528 33.938,5.279 34.755,6.331L37.915,3.878C36.554,2.124 34.647,0.873 32.496,0.323L31.504,4.198ZM34.755,6.331C35.572,7.383 36.016,8.678 36.016,10.01L40.016,10.01C40.016,7.79 39.277,5.632 37.915,3.878L34.755,6.331ZM36.016,10.01C36.016,11.342 35.572,12.637 34.755,13.689L37.915,16.142C39.277,14.388 40.016,12.23 40.016,10.01L36.016,10.01ZM34.755,13.689C33.938,14.741 32.795,15.492 31.504,15.823L32.496,19.698C34.647,19.147 36.554,17.896 37.915,16.142L34.755,13.689Z" fill="#7F56D9"/>
</svg>
