<svg width="40" height="28" viewBox="0 0 40 28" fill="none" xmlns="http://www.w3.org/2000/svg" xmlns:xlink="http://www.w3.org/1999/xlink">
<path d="M2,12C0.895,12 0,12.895 0,14C0,15.105 0.895,16 2,16L2,12ZM38,16C39.105,16 40,15.105 40,14C40,12.895 39.105,12 38,12L38,16ZM2,0C0.895,0 0,0.895 0,2C0,3.105 0.895,4 2,4L2,0ZM38,4C39.105,4 40,3.105 40,2C40,0.895 39.105,0 38,0L38,4ZM2,24C0.895,24 0,24.895 0,26C0,27.105 0.895,28 2,28L2,24ZM38,28C39.105,28 40,27.105 40,26C40,24.895 39.105,24 38,24L38,28ZM2,16L38,16L38,12L2,12L2,16ZM2,4L38,4L38,0L2,0L2,4ZM2,28L38,28L38,24L2,24L2,28Z" fill="#344054"/>
</svg>
