<svg width="28" height="28" viewBox="0 0 28 28" fill="none" xmlns="http://www.w3.org/2000/svg" xmlns:xlink="http://www.w3.org/1999/xlink">
<path d="M2.333,12.33C1.411,12.33 0.663,13.078 0.663,14C0.663,14.922 1.411,15.67 2.333,15.67L2.333,12.33ZM25.667,14L26.848,15.181C27.5,14.529 27.5,13.471 26.848,12.819L25.667,14ZM15.181,1.152C14.529,0.5 13.471,0.5 12.819,1.152C12.167,1.805 12.167,2.862 12.819,3.514L15.181,1.152ZM12.819,24.486C12.167,25.138 12.167,26.195 12.819,26.847C13.471,27.5 14.529,27.5 15.181,26.847L12.819,24.486ZM2.333,15.67L25.667,15.67L25.667,12.33L2.333,12.33L2.333,15.67ZM12.819,3.514L24.486,15.181L26.848,12.819L15.181,1.152L12.819,3.514ZM24.486,12.819L12.819,24.486L15.181,26.847L26.848,15.181L24.486,12.819Z" fill="#344054"/>
</svg>
