<svg width="24" height="14" viewBox="0 0 24 14" fill="none" xmlns="http://www.w3.org/2000/svg" xmlns:xlink="http://www.w3.org/1999/xlink">
<path d="M3.181,-0.181C2.529,-0.833 1.471,-0.833 0.819,-0.181C0.167,0.471 0.167,1.529 0.819,2.181L3.181,-0.181ZM12,11L10.819,12.181C11.471,12.833 12.529,12.833 13.181,12.181L12,11ZM23.181,2.181C23.833,1.529 23.833,0.471 23.181,-0.181C22.529,-0.833 21.471,-0.833 20.819,-0.181L23.181,2.181ZM0.819,2.181L10.819,12.181L13.181,9.819L3.181,-0.181L0.819,2.181ZM13.181,12.181L23.181,2.181L20.819,-0.181L10.819,9.819L13.181,12.181Z" fill="#667085"/>
</svg>
