<svg width="40" height="44" viewBox="0 0 40 44" fill="none" xmlns="http://www.w3.org/2000/svg" xmlns:xlink="http://www.w3.org/1999/xlink">
<path d="M22,2L23.985,2.248C24.095,1.367 23.611,0.519 22.796,0.165C21.982,-0.188 21.032,0.038 20.464,0.72L22,2ZM2,26L0.464,24.72C-0.033,25.316 -0.14,26.146 0.189,26.848C0.518,27.551 1.224,28 2,28L2,26ZM20,26L21.985,26.248C22.056,25.679 21.879,25.106 21.499,24.676C21.12,24.246 20.574,24 20,24L20,26ZM18,42L16.015,41.752C15.905,42.633 16.389,43.481 17.204,43.835C18.018,44.188 18.968,43.962 19.536,43.28L18,42ZM38,18L39.536,19.28C40.033,18.684 40.14,17.854 39.811,17.152C39.482,16.449 38.776,16 38,16L38,18ZM20,18L18.015,17.752C17.944,18.321 18.121,18.894 18.501,19.324C18.88,19.754 19.426,20 20,20L20,18ZM20.464,0.72L0.464,24.72L3.536,27.28L23.536,3.28L20.464,0.72ZM2,28L20,28L20,24L2,24L2,28ZM18.015,25.752L16.015,41.752L19.985,42.248L21.985,26.248L18.015,25.752ZM19.536,43.28L39.536,19.28L36.464,16.72L16.464,40.72L19.536,43.28ZM38,16L20,16L20,20L38,20L38,16ZM21.985,18.248L23.985,2.248L20.015,1.752L18.015,17.752L21.985,18.248Z" fill="#7F56D9"/>
</svg>
