<svg width="28" height="28" viewBox="0 0 28 28" fill="none" xmlns="http://www.w3.org/2000/svg" xmlns:xlink="http://www.w3.org/1999/xlink">
<path d="M1.333,12.33C0.411,12.33 -0.337,13.078 -0.337,14C-0.337,14.922 0.411,15.67 1.333,15.67L1.333,12.33ZM24.667,14L25.847,15.181C26.5,14.529 26.5,13.471 25.847,12.819L24.667,14ZM14.181,1.152C13.529,0.5 12.471,0.5 11.819,1.152C11.167,1.805 11.167,2.862 11.819,3.514L14.181,1.152ZM11.819,24.486C11.167,25.138 11.167,26.195 11.819,26.848C12.471,27.5 13.529,27.5 14.181,26.848L11.819,24.486ZM1.333,15.67L24.667,15.67L24.667,12.33L1.333,12.33L1.333,15.67ZM11.819,3.514L23.486,15.181L25.847,12.819L14.181,1.152L11.819,3.514ZM23.486,12.819L11.819,24.486L14.181,26.848L25.847,15.181L23.486,12.819Z" fill="#344054"/>
</svg>
