<svg width="34" height="38" viewBox="0 0 34 38" fill="none" xmlns="http://www.w3.org/2000/svg" xmlns:xlink="http://www.w3.org/1999/xlink">
<path d="M18.667,1.333L20.32,1.54C20.412,0.806 20.009,0.099 19.33,-0.196C18.652,-0.49 17.86,-0.302 17.386,0.266L18.667,1.333ZM2,21.333L0.72,20.266C0.306,20.763 0.216,21.454 0.491,22.04C0.765,22.626 1.353,23 2,23L2,21.333ZM17,21.333L18.654,21.54C18.713,21.066 18.566,20.589 18.249,20.23C17.933,19.872 17.478,19.667 17,19.667L17,21.333ZM15.333,34.667L13.68,34.46C13.588,35.194 13.991,35.901 14.67,36.195C15.348,36.49 16.14,36.302 16.614,35.734L15.333,34.667ZM32,14.667L33.28,15.734C33.694,15.237 33.784,14.545 33.509,13.96C33.235,13.374 32.647,13 32,13L32,14.667ZM17,14.667L15.346,14.46C15.287,14.934 15.434,15.411 15.751,15.77C16.067,16.128 16.522,16.333 17,16.333L17,14.667ZM17.386,0.266L0.72,20.266L3.28,22.4L19.947,2.4L17.386,0.266ZM2,23L17,23L17,19.667L2,19.667L2,23ZM15.346,21.127L13.68,34.46L16.987,34.873L18.654,21.54L15.346,21.127ZM16.614,35.734L33.28,15.734L30.72,13.6L14.053,33.6L16.614,35.734ZM32,13L17,13L17,16.333L32,16.333L32,13ZM18.654,14.873L20.32,1.54L17.013,1.127L15.346,14.46L18.654,14.873Z" fill="#7F56D9"/>
</svg>
