<svg width="42" height="34" viewBox="0 0 42 34" fill="none" xmlns="http://www.w3.org/2000/svg" xmlns:xlink="http://www.w3.org/1999/xlink">
<path d="M27.667,31C27.667,31.92 28.413,32.667 29.333,32.667C30.254,32.667 31,31.92 31,31L27.667,31ZM22.667,21L22.667,19.333L22.667,21ZM9.333,21L9.333,19.333L9.333,21ZM2.667,27.667L1,27.667L2.667,27.667ZM1,31C1,31.92 1.746,32.667 2.667,32.667C3.587,32.667 4.333,31.92 4.333,31L1,31ZM37.667,31C37.667,31.92 38.413,32.667 39.333,32.667C40.254,32.667 41,31.92 41,31L37.667,31ZM39.333,27.667L41,27.667L41,27.665L39.333,27.667ZM34.75,19.603C33.859,19.373 32.95,19.909 32.72,20.8C32.489,21.691 33.025,22.6 33.917,22.83L34.75,19.603ZM28.08,-0.398C27.188,-0.626 26.28,-0.088 26.052,0.803C25.824,1.695 26.361,2.603 27.253,2.831L28.08,-0.398ZM32.68,7.675L34.346,7.675L32.68,7.675ZM27.253,12.519C26.361,12.747 25.824,13.655 26.052,14.547C26.28,15.438 27.188,15.976 28.08,15.748L27.253,12.519ZM31,31L31,27.667L27.667,27.667L27.667,31L31,31ZM31,27.667C31,25.457 30.122,23.337 28.559,21.774L26.202,24.131C27.14,25.069 27.667,26.341 27.667,27.667L31,27.667ZM28.559,21.774C26.996,20.211 24.877,19.333 22.667,19.333L22.667,22.667C23.993,22.667 25.264,23.193 26.202,24.131L28.559,21.774ZM22.667,19.333L9.333,19.333L9.333,22.667L22.667,22.667L22.667,19.333ZM9.333,19.333C7.123,19.333 5.004,20.211 3.441,21.774L5.798,24.131C6.735,23.193 8.007,22.667 9.333,22.667L9.333,19.333ZM3.441,21.774C1.878,23.337 1,25.457 1,27.667L4.333,27.667C4.333,26.341 4.86,25.069 5.798,24.131L3.441,21.774ZM1,27.667L1,31L4.333,31L4.333,27.667L1,27.667ZM21,7.667C21,10.428 18.761,12.667 16,12.667L16,16C20.602,16 24.333,12.269 24.333,7.667L21,7.667ZM16,12.667C13.239,12.667 11,10.428 11,7.667L7.667,7.667C7.667,12.269 11.398,16 16,16L16,12.667ZM11,7.667C11,4.905 13.239,2.667 16,2.667L16,-0.667C11.398,-0.667 7.667,3.064 7.667,7.667L11,7.667ZM16,2.667C18.761,2.667 21,4.905 21,7.667L24.333,7.667C24.333,3.064 20.602,-0.667 16,-0.667L16,2.667ZM41,31L41,27.667L37.667,27.667L37.667,31L41,31ZM41,27.665C40.999,25.819 40.384,24.025 39.253,22.566L36.618,24.608C37.297,25.484 37.666,26.56 37.667,27.668L41,27.665ZM39.253,22.566C38.122,21.107 36.538,20.065 34.75,19.603L33.917,22.83C34.989,23.107 35.94,23.733 36.618,24.608L39.253,22.566ZM27.253,2.831C28.329,3.107 29.282,3.732 29.963,4.609L32.596,2.565C31.461,1.104 29.873,0.061 28.08,-0.398L27.253,2.831ZM29.963,4.609C30.643,5.486 31.013,6.565 31.013,7.675L34.346,7.675C34.346,5.825 33.73,4.027 32.596,2.565L29.963,4.609ZM31.013,7.675C31.013,8.785 30.644,9.864 29.963,10.741L32.596,12.785C33.73,11.323 34.346,9.525 34.346,7.675L31.013,7.675ZM29.963,10.741C29.282,11.618 28.329,12.243 27.253,12.519L28.08,15.748C29.873,15.289 31.461,14.246 32.596,12.785L29.963,10.741Z" fill="#7F56D9"/>
</svg>
