<svg width="28" height="28" viewBox="0 0 28 28" fill="none" xmlns="http://www.w3.org/2000/svg" xmlns:xlink="http://www.w3.org/1999/xlink">
<path d="M25.667,15.67C26.589,15.67 27.337,14.922 27.337,14C27.337,13.078 26.589,12.33 25.667,12.33L25.667,15.67ZM2.333,14L1.152,12.819C0.5,13.471 0.5,14.529 1.152,15.181L2.333,14ZM12.819,26.847C13.471,27.5 14.529,27.5 15.181,26.847C15.833,26.195 15.833,25.138 15.181,24.486L12.819,26.847ZM15.181,3.514C15.833,2.862 15.833,1.805 15.181,1.152C14.529,0.5 13.471,0.5 12.819,1.152L15.181,3.514ZM25.667,12.33L2.333,12.33L2.333,15.67L25.667,15.67L25.667,12.33ZM15.181,24.486L3.514,12.819L1.152,15.181L12.819,26.847L15.181,24.486ZM3.514,15.181L15.181,3.514L12.819,1.152L1.152,12.819L3.514,15.181Z" fill="#344054"/>
</svg>
