<svg width="30" height="38" viewBox="0 0 30 38" fill="none" xmlns="http://www.w3.org/2000/svg" xmlns:xlink="http://www.w3.org/1999/xlink">
<path d="M28.333,23L29.512,24.178C29.824,23.866 30,23.442 30,23L28.333,23ZM28.333,3L30,3C30,2.326 29.594,1.718 28.971,1.46C28.348,1.202 27.631,1.345 27.155,1.821L28.333,3ZM1.667,3L0.488,1.821C0.176,2.134 0,2.558 0,3L1.667,3ZM0,34.667C0,35.587 0.746,36.333 1.667,36.333C2.587,36.333 3.333,35.587 3.333,34.667L0,34.667ZM1.667,23C2.845,24.178 2.844,24.179 2.843,24.18C2.843,24.18 2.842,24.181 2.842,24.182C2.841,24.183 2.84,24.184 2.839,24.185C2.836,24.187 2.834,24.189 2.832,24.191C2.829,24.195 2.825,24.198 2.822,24.201C2.816,24.207 2.811,24.211 2.808,24.214C2.801,24.22 2.801,24.22 2.808,24.215C2.82,24.204 2.86,24.173 2.93,24.126C3.068,24.034 3.331,23.879 3.744,23.714C4.567,23.385 6.021,23 8.333,23L8.333,19.667C5.645,19.667 3.766,20.115 2.506,20.619C1.878,20.87 1.411,21.133 1.081,21.353C0.916,21.462 0.786,21.561 0.688,21.642C0.64,21.682 0.599,21.718 0.565,21.748C0.549,21.763 0.534,21.777 0.521,21.789C0.515,21.795 0.509,21.801 0.503,21.806C0.501,21.809 0.498,21.812 0.495,21.814C0.494,21.815 0.493,21.817 0.492,21.818C0.491,21.818 0.49,21.819 0.49,21.82C0.489,21.82 0.488,21.821 1.667,23ZM8.333,23C10.468,23 12.267,23.702 14.381,24.547C16.434,25.369 18.801,26.333 21.667,26.333L21.667,23C19.532,23 17.732,22.298 15.619,21.452C13.566,20.631 11.199,19.667 8.333,19.667L8.333,23ZM21.667,26.333C24.354,26.333 26.234,25.885 27.494,25.381C28.122,25.129 28.589,24.867 28.919,24.647C29.084,24.537 29.214,24.439 29.311,24.358C29.36,24.318 29.401,24.282 29.434,24.252C29.451,24.237 29.466,24.223 29.479,24.211C29.485,24.205 29.491,24.199 29.497,24.193C29.499,24.191 29.502,24.188 29.505,24.186C29.506,24.184 29.507,24.183 29.508,24.182C29.509,24.181 29.51,24.18 29.51,24.18C29.511,24.179 29.512,24.178 28.333,23C27.155,21.821 27.156,21.82 27.156,21.82C27.157,21.819 27.158,21.819 27.158,21.818C27.159,21.817 27.16,21.816 27.161,21.815C27.164,21.813 27.166,21.811 27.167,21.809C27.171,21.805 27.175,21.802 27.178,21.799C27.184,21.793 27.189,21.788 27.192,21.785C27.199,21.78 27.199,21.78 27.192,21.785C27.18,21.795 27.14,21.827 27.07,21.874C26.931,21.966 26.669,22.12 26.256,22.286C25.432,22.615 23.979,23 21.667,23L21.667,26.333ZM30,23L30,3L26.667,3L26.667,23L30,23ZM28.333,3C27.155,1.821 27.156,1.821 27.156,1.82C27.157,1.819 27.158,1.819 27.158,1.818C27.159,1.817 27.16,1.816 27.161,1.815C27.164,1.813 27.166,1.811 27.167,1.809C27.171,1.805 27.175,1.802 27.178,1.799C27.184,1.793 27.189,1.788 27.192,1.785C27.199,1.78 27.199,1.78 27.192,1.785C27.18,1.796 27.14,1.827 27.07,1.874C26.931,1.966 26.669,2.12 26.256,2.286C25.432,2.615 23.979,3 21.667,3L21.667,6.333C24.354,6.333 26.234,5.885 27.494,5.381C28.122,5.129 28.589,4.867 28.919,4.647C29.084,4.537 29.214,4.439 29.311,4.358C29.36,4.318 29.401,4.282 29.434,4.252C29.451,4.237 29.466,4.223 29.479,4.211C29.485,4.205 29.491,4.199 29.497,4.193C29.499,4.191 29.502,4.188 29.505,4.186C29.506,4.184 29.507,4.183 29.508,4.182C29.509,4.181 29.51,4.18 29.51,4.18C29.511,4.179 29.512,4.178 28.333,3ZM21.667,3C19.532,3 17.732,2.298 15.619,1.452C13.566,0.631 11.199,-0.333 8.333,-0.333L8.333,3C10.468,3 12.267,3.702 14.381,4.547C16.434,5.369 18.801,6.333 21.667,6.333L21.667,3ZM8.333,-0.333C5.645,-0.333 3.766,0.115 2.506,0.619C1.878,0.87 1.411,1.133 1.081,1.353C0.916,1.463 0.786,1.561 0.688,1.642C0.64,1.682 0.599,1.718 0.565,1.748C0.549,1.763 0.534,1.777 0.521,1.789C0.515,1.795 0.509,1.801 0.503,1.806C0.501,1.809 0.498,1.812 0.495,1.814C0.494,1.815 0.493,1.817 0.492,1.818C0.491,1.818 0.49,1.819 0.49,1.82C0.489,1.821 0.488,1.821 1.667,3C2.845,4.178 2.844,4.179 2.843,4.18C2.843,4.18 2.842,4.181 2.842,4.182C2.841,4.183 2.84,4.184 2.839,4.185C2.836,4.187 2.834,4.189 2.832,4.191C2.829,4.195 2.825,4.198 2.822,4.201C2.816,4.207 2.811,4.212 2.808,4.214C2.801,4.22 2.801,4.22 2.808,4.215C2.82,4.204 2.86,4.173 2.93,4.126C3.068,4.034 3.331,3.879 3.744,3.714C4.567,3.385 6.021,3 8.333,3L8.333,-0.333ZM0,3L0,23L3.333,23L3.333,3L0,3ZM3.333,34.667L3.333,23L0,23L0,34.667L3.333,34.667Z" fill="#7F56D9"/>
</svg>
