<svg width="40" height="34" viewBox="0 0 40 34" fill="none" xmlns="http://www.w3.org/2000/svg" xmlns:xlink="http://www.w3.org/1999/xlink">
<path d="M27.25,0.997L27.25,2.664L27.25,0.997ZM20.767,3.683L21.945,4.862L21.945,4.862L20.767,3.683ZM19,5.45L17.821,6.629C18.472,7.279 19.528,7.279 20.179,6.629L19,5.45ZM17.233,3.683L16.055,4.862L16.055,4.862L17.233,3.683ZM4.267,16.65L3.088,17.829L3.088,17.829L4.267,16.65ZM6.033,18.417L4.855,19.595L6.033,18.417ZM19,31.383L17.821,32.562C18.472,33.213 19.528,33.213 20.179,32.562L19,31.383ZM33.733,16.65L32.555,15.471L32.555,15.472L33.733,16.65ZM34.912,2.505C33.906,1.499 32.712,0.7 31.397,0.156L30.121,3.235C31.031,3.612 31.858,4.165 32.555,4.862L34.912,2.505ZM31.397,0.156C30.082,-0.389 28.673,-0.67 27.25,-0.67L27.25,2.664C28.235,2.664 29.211,2.858 30.121,3.235L31.397,0.156ZM27.25,-0.67C25.827,-0.67 24.418,-0.389 23.103,0.156L24.379,3.235C25.289,2.858 26.265,2.664 27.25,2.664L27.25,-0.67ZM23.103,0.156C21.788,0.7 20.594,1.499 19.588,2.505L21.945,4.862C22.642,4.165 23.469,3.612 24.379,3.235L23.103,0.156ZM19.588,2.505L17.821,4.272L20.179,6.629L21.945,4.862L19.588,2.505ZM20.179,4.272L18.412,2.505L16.055,4.862L17.821,6.629L20.179,4.272ZM18.412,2.505C16.38,0.473 13.624,-0.669 10.75,-0.669L10.75,2.665C12.74,2.665 14.648,3.455 16.055,4.862L18.412,2.505ZM10.75,-0.669C7.876,-0.669 5.12,0.473 3.088,2.505L5.445,4.862C6.852,3.455 8.76,2.665 10.75,2.665L10.75,-0.669ZM3.088,2.505C1.056,4.537 -0.085,7.293 -0.085,10.167L3.248,10.167C3.248,8.177 4.038,6.269 5.445,4.862L3.088,2.505ZM-0.085,10.167C-0.085,13.041 1.056,15.797 3.088,17.829L5.445,15.472C4.038,14.065 3.248,12.156 3.248,10.167L-0.085,10.167ZM3.088,17.829L4.855,19.595L7.212,17.238L5.445,15.472L3.088,17.829ZM4.855,19.595L17.821,32.562L20.179,30.205L7.212,17.238L4.855,19.595ZM20.179,32.562L33.145,19.595L30.788,17.238L17.821,30.205L20.179,32.562ZM33.145,19.595L34.912,17.829L32.555,15.472L30.788,17.238L33.145,19.595ZM34.912,17.829C35.918,16.823 36.717,15.628 37.261,14.314L34.182,13.038C33.805,13.948 33.252,14.775 32.555,15.471L34.912,17.829ZM37.261,14.314C37.806,12.999 38.086,11.59 38.086,10.167L34.753,10.167C34.753,11.152 34.559,12.128 34.182,13.038L37.261,14.314ZM38.086,10.167C38.086,8.744 37.806,7.335 37.261,6.02L34.182,7.296C34.559,8.206 34.753,9.182 34.753,10.167L38.086,10.167ZM37.261,6.02C36.717,4.705 35.918,3.511 34.912,2.505L32.555,4.862C33.252,5.559 33.805,6.386 34.182,7.296L37.261,6.02Z" fill="#7F56D9"/>
</svg>
