<svg width="42" height="24" viewBox="0 0 42 24" fill="none" xmlns="http://www.w3.org/2000/svg" xmlns:xlink="http://www.w3.org/1999/xlink">
<path d="M39.333,2L41,2C41,1.08 40.254,0.333 39.333,0.333L39.333,2ZM23.5,17.833L22.321,19.012C22.634,19.324 23.058,19.5 23.5,19.5C23.942,19.5 24.366,19.324 24.678,19.012L23.5,17.833ZM15.167,9.5L16.345,8.321C16.033,8.009 15.609,7.833 15.167,7.833C14.725,7.833 14.301,8.009 13.988,8.321L15.167,9.5ZM1.488,20.821C0.837,21.472 0.837,22.528 1.488,23.179C2.139,23.829 3.194,23.829 3.845,23.179L1.488,20.821ZM29.333,0.333C28.413,0.333 27.667,1.08 27.667,2C27.667,2.92 28.413,3.667 29.333,3.667L29.333,0.333ZM37.667,12C37.667,12.92 38.413,13.667 39.333,13.667C40.254,13.667 41,12.92 41,12L37.667,12ZM38.155,0.821L22.321,16.655L24.678,19.012L40.512,3.179L38.155,0.821ZM24.678,16.655L16.345,8.321L13.988,10.679L22.321,19.012L24.678,16.655ZM13.988,8.321L1.488,20.821L3.845,23.179L16.345,10.679L13.988,8.321ZM29.333,3.667L39.333,3.667L39.333,0.333L29.333,0.333L29.333,3.667ZM37.667,2L37.667,12L41,12L41,2L37.667,2Z" fill="#7F56D9"/>
</svg>
