<svg width="28" height="28" viewBox="0 0 28 28" fill="none" xmlns="http://www.w3.org/2000/svg" xmlns:xlink="http://www.w3.org/1999/xlink">
<path d="M24.667,15.67C25.589,15.67 26.337,14.922 26.337,14C26.337,13.078 25.589,12.33 24.667,12.33L24.667,15.67ZM1.333,14L0.152,12.819C-0.5,13.471 -0.5,14.529 0.152,15.181L1.333,14ZM11.819,26.848C12.471,27.5 13.529,27.5 14.181,26.848C14.833,26.195 14.833,25.138 14.181,24.486L11.819,26.848ZM14.181,3.514C14.833,2.862 14.833,1.805 14.181,1.152C13.529,0.5 12.471,0.5 11.819,1.152L14.181,3.514ZM24.667,12.33L1.333,12.33L1.333,15.67L24.667,15.67L24.667,12.33ZM14.181,24.486L2.514,12.819L0.152,15.181L11.819,26.848L14.181,24.486ZM2.514,15.181L14.181,3.514L11.819,1.152L0.152,12.819L2.514,15.181Z" fill="#344054"/>
</svg>
