<svg width="48" height="28" viewBox="0 0 48 28" fill="none" xmlns="http://www.w3.org/2000/svg" xmlns:xlink="http://www.w3.org/1999/xlink">
<path d="M46,2L48,2C48,0.895 47.105,0 46,0L46,2ZM27,21L25.586,22.414C26.367,23.195 27.633,23.195 28.414,22.414L27,21ZM17,11L18.414,9.586C17.633,8.805 16.367,8.805 15.586,9.586L17,11ZM0.586,24.586C-0.195,25.367 -0.195,26.633 0.586,27.414C1.367,28.195 2.633,28.195 3.414,27.414L0.586,24.586ZM34,0C32.895,0 32,0.895 32,2C32,3.105 32.895,4 34,4L34,0ZM44,14C44,15.105 44.895,16 46,16C47.105,16 48,15.105 48,14L44,14ZM44.586,0.586L25.586,19.586L28.414,22.414L47.414,3.414L44.586,0.586ZM28.414,19.586L18.414,9.586L15.586,12.414L25.586,22.414L28.414,19.586ZM15.586,9.586L0.586,24.586L3.414,27.414L18.414,12.414L15.586,9.586ZM34,4L46,4L46,0L34,0L34,4ZM44,2L44,14L48,14L48,2L44,2Z" fill="#7F56D9"/>
</svg>
