<svg width="34" height="34" viewBox="0 0 34 34" fill="none" xmlns="http://www.w3.org/2000/svg" xmlns:xlink="http://www.w3.org/1999/xlink">
<path d="M29.821,32.179C30.472,32.829 31.528,32.829 32.179,32.179C32.829,31.528 32.829,30.472 32.179,29.821L29.821,32.179ZM24.929,22.571C24.278,21.921 23.222,21.921 22.571,22.571C21.921,23.222 21.921,24.278 22.571,24.929L24.929,22.571ZM26,14.333C26,20.777 20.777,26 14.333,26L14.333,29.333C22.618,29.333 29.333,22.618 29.333,14.333L26,14.333ZM14.333,26C7.89,26 2.667,20.777 2.667,14.333L-0.667,14.333C-0.667,22.618 6.049,29.333 14.333,29.333L14.333,26ZM2.667,14.333C2.667,7.89 7.89,2.667 14.333,2.667L14.333,-0.667C6.049,-0.667 -0.667,6.049 -0.667,14.333L2.667,14.333ZM14.333,2.667C20.777,2.667 26,7.89 26,14.333L29.333,14.333C29.333,6.049 22.618,-0.667 14.333,-0.667L14.333,2.667ZM32.179,29.821L24.929,22.571L22.571,24.929L29.821,32.179L32.179,29.821Z" fill="#667085"/>
</svg>
