<svg width="36" height="44" viewBox="0 0 36 44" fill="none" xmlns="http://www.w3.org/2000/svg" xmlns:xlink="http://www.w3.org/1999/xlink">
<path d="M34,28L35.414,29.414C35.789,29.039 36,28.53 36,28L34,28ZM34,4L36,4C36,3.191 35.513,2.462 34.765,2.152C34.018,1.843 33.158,2.014 32.586,2.586L34,4ZM2,4L0.586,2.586C0.211,2.961 0,3.47 0,4L2,4ZM0,42C0,43.105 0.895,44 2,44C3.105,44 4,43.105 4,42L0,42ZM2,28C3.414,29.414 3.413,29.415 3.412,29.416C3.412,29.417 3.411,29.418 3.41,29.418C3.409,29.42 3.408,29.421 3.406,29.422C3.404,29.425 3.401,29.427 3.399,29.429C3.394,29.434 3.39,29.438 3.386,29.441C3.379,29.449 3.373,29.454 3.369,29.457C3.362,29.464 3.361,29.464 3.369,29.458C3.384,29.445 3.432,29.407 3.516,29.352C3.682,29.241 3.997,29.055 4.493,28.857C5.481,28.462 7.225,28 10,28L10,24C6.775,24 4.519,24.538 3.007,25.143C2.253,25.445 1.693,25.759 1.297,26.023C1.099,26.155 0.944,26.274 0.826,26.37C0.768,26.419 0.719,26.461 0.679,26.498C0.659,26.516 0.641,26.532 0.625,26.547C0.618,26.554 0.611,26.561 0.604,26.568C0.601,26.571 0.598,26.574 0.594,26.577C0.593,26.579 0.591,26.58 0.59,26.582C0.589,26.582 0.588,26.583 0.588,26.584C0.587,26.585 0.586,26.586 2,28ZM10,28C12.561,28 14.721,28.842 17.257,29.857C19.721,30.842 22.561,32 26,32L26,28C23.439,28 21.279,27.158 18.743,26.143C16.279,25.158 13.439,24 10,24L10,28ZM26,32C29.225,32 31.481,31.462 32.993,30.857C33.747,30.555 34.307,30.241 34.703,29.977C34.901,29.845 35.056,29.726 35.174,29.63C35.232,29.581 35.281,29.539 35.321,29.502C35.341,29.484 35.359,29.468 35.375,29.453C35.382,29.446 35.389,29.439 35.396,29.432C35.399,29.429 35.402,29.426 35.406,29.423C35.407,29.421 35.409,29.42 35.41,29.418C35.411,29.418 35.412,29.417 35.412,29.416C35.413,29.415 35.414,29.414 34,28C32.586,26.586 32.587,26.585 32.588,26.584C32.588,26.583 32.589,26.582 32.59,26.582C32.591,26.58 32.592,26.579 32.594,26.578C32.596,26.575 32.599,26.573 32.601,26.571C32.606,26.566 32.61,26.562 32.614,26.559C32.621,26.551 32.627,26.546 32.631,26.543C32.638,26.536 32.639,26.536 32.631,26.542C32.616,26.555 32.568,26.593 32.484,26.648C32.318,26.759 32.003,26.945 31.507,27.143C30.519,27.538 28.775,28 26,28L26,32ZM36,28L36,4L32,4L32,28L36,28ZM34,4C32.586,2.586 32.587,2.585 32.588,2.584C32.588,2.583 32.589,2.582 32.59,2.582C32.591,2.58 32.592,2.579 32.594,2.578C32.596,2.575 32.599,2.573 32.601,2.571C32.606,2.566 32.61,2.562 32.614,2.559C32.621,2.551 32.627,2.546 32.631,2.543C32.638,2.536 32.639,2.536 32.631,2.542C32.616,2.555 32.568,2.593 32.484,2.648C32.318,2.759 32.003,2.945 31.507,3.143C30.519,3.538 28.775,4 26,4L26,8C29.225,8 31.481,7.462 32.993,6.857C33.747,6.555 34.307,6.241 34.703,5.977C34.901,5.845 35.056,5.726 35.174,5.63C35.232,5.581 35.281,5.539 35.321,5.502C35.341,5.484 35.359,5.468 35.375,5.453C35.382,5.446 35.389,5.439 35.396,5.432C35.399,5.429 35.402,5.426 35.406,5.423C35.407,5.421 35.409,5.42 35.41,5.418C35.411,5.418 35.412,5.417 35.412,5.416C35.413,5.415 35.414,5.414 34,4ZM26,4C23.439,4 21.279,3.158 18.743,2.143C16.279,1.158 13.439,0 10,0L10,4C12.561,4 14.721,4.842 17.257,5.857C19.721,6.842 22.561,8 26,8L26,4ZM10,0C6.775,0 4.519,0.538 3.007,1.143C2.253,1.445 1.693,1.759 1.297,2.023C1.099,2.155 0.944,2.274 0.826,2.37C0.768,2.419 0.719,2.461 0.679,2.498C0.659,2.516 0.641,2.532 0.625,2.547C0.618,2.554 0.611,2.561 0.604,2.568C0.601,2.571 0.598,2.574 0.594,2.577C0.593,2.579 0.591,2.58 0.59,2.582C0.589,2.582 0.588,2.583 0.588,2.584C0.587,2.585 0.586,2.586 2,4C3.414,5.414 3.413,5.415 3.412,5.416C3.412,5.417 3.411,5.418 3.41,5.418C3.409,5.42 3.408,5.421 3.406,5.422C3.404,5.425 3.401,5.427 3.399,5.429C3.394,5.434 3.39,5.438 3.386,5.441C3.379,5.449 3.373,5.454 3.369,5.457C3.362,5.464 3.361,5.464 3.369,5.458C3.384,5.445 3.432,5.407 3.516,5.352C3.682,5.241 3.997,5.055 4.493,4.857C5.481,4.462 7.225,4 10,4L10,0ZM0,4L0,28L4,28L4,4L0,4ZM4,42L4,28L0,28L0,42L4,42Z" fill="#7F56D9"/>
</svg>
