<svg width="40" height="40" viewBox="0 0 40 40" fill="none" xmlns="http://www.w3.org/2000/svg" xmlns:xlink="http://www.w3.org/1999/xlink">
<path d="M19,0C7.959,0 -1,8.959 -1,20C-1,31.041 7.959,40 19,40C30.02,40 39,31.041 39,20C39,8.959 30.02,0 19,0ZM32.21,9.219C34.597,12.126 36.028,15.835 36.072,19.848C35.508,19.74 29.868,18.59 24.184,19.306C24.054,19.024 23.946,18.72 23.816,18.416C23.469,17.592 23.078,16.746 22.688,15.944C28.978,13.384 31.842,9.696 32.21,9.219ZM19,2.95C23.338,2.95 27.308,4.577 30.323,7.245C30.019,7.679 27.438,11.128 21.364,13.406C18.566,8.265 15.464,4.056 14.987,3.406C16.267,3.102 17.612,2.95 19,2.95ZM11.733,4.555C12.189,5.163 15.226,9.393 18.067,14.425C10.085,16.551 3.035,16.508 2.275,16.508C3.382,11.215 6.961,6.811 11.733,4.555ZM1.907,20.022C1.907,19.848 1.907,19.675 1.907,19.501C2.644,19.523 10.931,19.631 19.456,17.072C19.955,18.026 20.41,19.002 20.844,19.978C20.627,20.043 20.388,20.108 20.171,20.174C11.364,23.015 6.679,30.781 6.289,31.432C3.577,28.417 1.907,24.404 1.907,20.022ZM19,37.093C15.052,37.093 11.408,35.748 8.523,33.492C8.826,32.863 12.297,26.182 21.928,22.82C21.972,22.798 21.994,22.798 22.037,22.777C24.445,29.002 25.421,34.23 25.681,35.727C23.62,36.616 21.364,37.093 19,37.093ZM28.523,34.165C28.349,33.124 27.438,28.135 25.204,21.996C30.562,21.15 35.247,22.538 35.833,22.733C35.096,27.484 32.362,31.583 28.523,34.165Z" clip-rule="evenodd" fill-rule="evenodd" fill="#98A2B3"/>
</svg>
