<svg width="40" height="40" viewBox="0 0 40 40" fill="none" xmlns="http://www.w3.org/2000/svg" xmlns:xlink="http://www.w3.org/1999/xlink">
<path d="M20,0C8.959,0 0,8.959 0,20C0,31.041 8.959,40 20,40C31.02,40 40,31.041 40,20C40,8.959 31.02,0 20,0ZM33.21,9.219C35.597,12.126 37.028,15.835 37.072,19.848C36.508,19.74 30.868,18.59 25.184,19.306C25.054,19.024 24.946,18.72 24.816,18.416C24.469,17.592 24.078,16.746 23.688,15.944C29.978,13.384 32.842,9.696 33.21,9.219ZM20,2.95C24.338,2.95 28.308,4.577 31.323,7.245C31.019,7.679 28.438,11.128 22.364,13.406C19.566,8.265 16.464,4.056 15.987,3.406C17.267,3.102 18.612,2.95 20,2.95ZM12.733,4.555C13.189,5.163 16.226,9.393 19.067,14.425C11.085,16.551 4.035,16.508 3.275,16.508C4.382,11.215 7.961,6.811 12.733,4.555ZM2.907,20.022C2.907,19.848 2.907,19.675 2.907,19.501C3.644,19.523 11.931,19.631 20.456,17.072C20.955,18.026 21.41,19.002 21.844,19.978C21.627,20.043 21.388,20.108 21.171,20.174C12.364,23.015 7.679,30.781 7.288,31.432C4.577,28.417 2.907,24.404 2.907,20.022ZM20,37.093C16.052,37.093 12.408,35.748 9.523,33.492C9.826,32.863 13.297,26.182 22.928,22.82C22.972,22.798 22.994,22.798 23.037,22.777C25.445,29.002 26.421,34.23 26.681,35.727C24.62,36.616 22.364,37.093 20,37.093ZM29.523,34.165C29.349,33.124 28.438,28.135 26.204,21.996C31.562,21.15 36.247,22.538 36.833,22.733C36.096,27.484 33.362,31.583 29.523,34.165Z" clip-rule="evenodd" fill-rule="evenodd" fill="#98A2B3"/>
</svg>
