<svg width="40" height="34" viewBox="0 0 40 34" fill="none" xmlns="http://www.w3.org/2000/svg" xmlns:xlink="http://www.w3.org/1999/xlink">
<path d="M11.584,32.25C26.674,32.25 34.93,19.744 34.93,8.903C34.93,8.552 34.923,8.192 34.907,7.841C36.513,6.679 37.899,5.24 39,3.592C37.504,4.258 35.916,4.692 34.29,4.881C36.002,3.855 37.284,2.242 37.898,0.343C36.288,1.298 34.526,1.971 32.689,2.334C31.451,1.019 29.815,0.149 28.033,-0.143C26.251,-0.435 24.422,-0.132 22.83,0.72C21.237,1.572 19.97,2.924 19.223,4.569C18.476,6.213 18.292,8.058 18.699,9.817C15.437,9.653 12.247,8.806 9.333,7.33C6.42,5.854 3.849,3.782 1.788,1.249C0.741,3.055 0.42,5.193 0.892,7.227C1.363,9.261 2.592,11.039 4.327,12.2C3.024,12.159 1.75,11.808 0.609,11.177L0.609,11.278C0.608,13.174 1.264,15.011 2.464,16.478C3.664,17.945 5.336,18.951 7.194,19.325C5.987,19.655 4.72,19.703 3.491,19.466C4.016,21.096 5.036,22.522 6.41,23.544C7.783,24.566 9.442,25.134 11.154,25.169C8.247,27.452 4.657,28.69 0.961,28.684C0.305,28.683 -0.349,28.643 -1,28.564C2.755,30.973 7.123,32.252 11.584,32.25Z" fill="#98A2B3"/>
</svg>
