<svg width="34" height="48" viewBox="0 0 34 48" fill="none" xmlns="http://www.w3.org/2000/svg" xmlns:xlink="http://www.w3.org/1999/xlink">
<path d="M27.541,20.194C28.637,17.138 31.797,8.297 31.797,5.466C31.797,2.972 30.325,0.881 27.7,0.881C23.519,0.881 19.769,13.228 18.597,16.172C17.688,13.5 13.431,0 9.681,0C6.766,0 5.397,2.147 5.397,4.847C5.397,8.156 8.603,16.734 9.766,20.034C9.175,19.819 8.538,19.631 7.891,19.631C5.697,19.631 3.363,22.359 3.363,24.562C3.363,25.397 3.822,26.569 4.113,27.347C0.653,28.284 -0.678,30.591 -0.678,34.069C-0.687,40.837 5.725,48 14.744,48C25.806,48 32.687,39.694 32.687,28.978C32.687,24.938 32.041,21.291 27.541,20.194L27.541,20.194ZM24.222,10.125C24.597,8.972 26.2,4.097 27.7,4.097C28.506,4.097 28.722,4.931 28.722,5.597C28.722,7.388 25.103,17.278 24.306,19.472L21.119,18.909L24.222,10.125L24.222,10.125ZM8.341,4.528C8.341,3.413 9.7,0.244 12.681,8.944L15.925,18.347C14.463,18.225 13.328,18.066 12.606,18.478C11.584,15.778 8.341,7.256 8.341,4.528L8.341,4.528ZM8.125,22.875C10.872,22.875 14.416,31.744 14.416,32.944C14.416,33.422 13.956,34.012 13.422,34.012C11.463,34.012 6.213,26.803 6.213,24.853C6.222,24.131 7.403,22.875 8.125,22.875L8.125,22.875ZM25.403,40.341C22.675,43.341 19.188,44.897 15.119,44.897C9.55,44.897 5.153,41.841 3.034,36.619C1.431,32.55 3.391,30.216 4.966,30.216C6.034,30.216 10.056,35.869 10.056,37.069C10.056,37.528 9.334,37.847 8.959,37.847C7.45,37.847 6.859,36.394 4.169,33.028C1.384,35.812 6.091,41.175 9.634,41.175C12.081,41.175 13.675,38.906 13.197,37.238C13.544,37.238 13.975,37.266 14.294,37.181C14.397,39.722 15.147,42.75 18.203,42.966C18.203,42.881 18.391,42.3 18.391,42.272C18.391,40.641 17.397,39.216 17.397,37.556C17.397,34.903 19.431,32.334 21.494,30.834C22.244,30.272 23.153,29.925 24.034,29.606C24.944,29.259 25.909,28.856 26.603,28.162C26.5,27.112 26.069,26.184 25.019,26.184C22.422,26.184 13.713,26.559 13.713,22.463C13.713,21.834 13.722,21.234 15.344,21.234C18.372,21.234 26.059,21.984 28.309,23.963C30.006,25.472 30.587,34.575 25.403,40.341L25.403,40.341ZM16.159,28.528C17.069,28.819 18.006,28.903 18.944,29.091C18.25,29.597 17.631,30.216 17.041,30.881C16.778,30.084 16.459,29.306 16.159,28.528L16.159,28.528Z" fill="#98A2B3"/>
</svg>
