<svg width="48" height="48" viewBox="0 0 48 48" fill="none" xmlns="http://www.w3.org/2000/svg" xmlns:xlink="http://www.w3.org/1999/xlink">
<path d="M24,0C10.751,0 0,10.751 0,24C0,37.25 10.751,48 24,48C37.223,48 48,37.25 48,24C48,10.751 37.223,0 24,0ZM39.852,11.063C42.716,14.551 44.434,19.002 44.486,23.818C43.809,23.688 37.041,22.308 30.221,23.167C30.065,22.829 29.935,22.464 29.779,22.1C29.362,21.111 28.894,20.095 28.425,19.132C35.974,16.061 39.41,11.636 39.852,11.063ZM24,3.54C29.206,3.54 33.97,5.492 37.588,8.694C37.223,9.215 34.126,13.354 26.837,16.087C23.479,9.918 19.757,4.868 19.184,4.087C20.72,3.722 22.334,3.54 24,3.54ZM15.28,5.466C15.827,6.195 19.471,11.271 22.881,17.31C13.302,19.861 4.842,19.809 3.931,19.809C5.258,13.458 9.553,8.174 15.28,5.466ZM3.488,24.026C3.488,23.818 3.488,23.61 3.488,23.401C4.373,23.427 14.317,23.557 24.547,20.486C25.145,21.631 25.692,22.803 26.213,23.974C25.952,24.052 25.666,24.13 25.406,24.208C14.837,27.618 9.215,36.937 8.746,37.718C5.492,34.1 3.488,29.284 3.488,24.026ZM24,44.512C19.262,44.512 14.889,42.898 11.427,40.191C11.792,39.436 15.957,31.419 27.514,27.384C27.566,27.358 27.592,27.358 27.644,27.332C30.534,34.803 31.705,41.076 32.017,42.872C29.544,43.939 26.837,44.512 24,44.512ZM35.427,40.998C35.219,39.748 34.126,33.761 31.445,26.395C37.874,25.38 43.497,27.046 44.2,27.28C43.315,32.98 40.035,37.9 35.427,40.998Z" clip-rule="evenodd" fill-rule="evenodd" fill="#98A2B3"/>
</svg>
