<svg width="40" height="40" viewBox="0 0 40 40" fill="none" xmlns="http://www.w3.org/2000/svg" xmlns:xlink="http://www.w3.org/1999/xlink">
<path d="M36.039,0L1.953,0C0.32,0 -1,1.289 -1,2.883L-1,37.109C-1,38.703 0.32,40 1.953,40L36.039,40C37.672,40 39,38.703 39,37.117L39,2.883C39,1.289 37.672,0 36.039,0ZM10.867,34.086L4.93,34.086L4.93,14.992L10.867,14.992L10.867,34.086ZM7.898,12.391C5.992,12.391 4.453,10.852 4.453,8.953C4.453,7.055 5.992,5.516 7.898,5.516C9.797,5.516 11.336,7.055 11.336,8.953C11.336,10.844 9.797,12.391 7.898,12.391ZM33.086,34.086L27.156,34.086L27.156,24.805C27.156,22.594 27.117,19.742 24.07,19.742C20.984,19.742 20.516,22.156 20.516,24.648L20.516,34.086L14.594,34.086L14.594,14.992L20.281,14.992L20.281,17.602L20.359,17.602C21.148,16.102 23.086,14.516 25.969,14.516C31.977,14.516 33.086,18.469 33.086,23.609L33.086,34.086L33.086,34.086Z" fill="#98A2B3"/>
</svg>
